<svg width="29" height="25" viewBox="0 0 29 25" fill="none" xmlns="http://www.w3.org/2000/svg">
<path d="M21.7222 23.4031C21.7222 21.0099 18.4887 19.0698 14.5 19.0698C10.5113 19.0698 7.27778 21.0099 7.27778 23.4031M27.5 19.0703C27.5 17.2934 25.7174 15.7662 23.1667 15.0976M1.5 19.0703C1.5 17.2934 3.28258 15.7662 5.83333 15.0976M23.1667 9.29971C24.0532 8.50625 24.6111 7.35317 24.6111 6.06978C24.6111 3.67655 22.671 1.73645 20.2778 1.73645C19.1679 1.73645 18.1555 2.15368 17.3889 2.83985M5.83333 9.29971C4.94681 8.50625 4.38889 7.35317 4.38889 6.06978C4.38889 3.67655 6.32899 1.73645 8.72222 1.73645C9.83207 1.73645 10.8445 2.15368 11.6111 2.83985M14.5 14.7364C12.1068 14.7364 10.1667 12.7964 10.1667 10.4031C10.1667 8.00988 12.1068 6.06978 14.5 6.06978C16.8932 6.06978 18.8333 8.00988 18.8333 10.4031C18.8333 12.7964 16.8932 14.7364 14.5 14.7364Z" stroke="white" stroke-width="2" stroke-linecap="round" stroke-linejoin="round"/>
</svg>
