<svg width="166" height="47" viewBox="0 0 166 47" fill="none" xmlns="http://www.w3.org/2000/svg">
<path d="M3 21.9998H9.65354" stroke="#327CE2" stroke-width="4.09449" stroke-linecap="round" stroke-linejoin="round"/>
<path d="M7.43555 6.47488L12.1403 11.1796" stroke="#327CE2" stroke-width="4.09449" stroke-linecap="round" stroke-linejoin="round"/>
<path d="M38.4855 6.47488L33.7808 11.1796" stroke="#327CE2" stroke-width="4.09449" stroke-linecap="round" stroke-linejoin="round"/>
<path d="M7.43555 37.5246L12.1403 32.8198" stroke="#327CE2" stroke-width="4.09449" stroke-linecap="round" stroke-linejoin="round"/>
<path d="M38.4855 37.5246L33.7808 32.8198" stroke="#327CE2" stroke-width="4.09449" stroke-linecap="round" stroke-linejoin="round"/>
<path d="M22.9604 2.03919V8.69273" stroke="#327CE2" stroke-width="4.09449" stroke-linecap="round" stroke-linejoin="round"/>
<path d="M22.9604 41.9604V35.3069" stroke="#327CE2" stroke-width="4.09449" stroke-linecap="round" stroke-linejoin="round"/>
<path d="M36.2676 21.9998H42.9211" stroke="#327CE2" stroke-width="4.09449" stroke-linecap="round" stroke-linejoin="round"/>
<path d="M29.6142 21.9998C29.6142 25.6745 26.6353 28.6534 22.9607 28.6534C19.286 28.6534 16.3071 25.6745 16.3071 21.9998C16.3071 18.3252 19.286 15.3463 22.9607 15.3463C26.6353 15.3463 29.6142 18.3252 29.6142 21.9998Z" fill="#327CE2" stroke="#327CE2" stroke-width="4.09449" stroke-linecap="round" stroke-linejoin="round"/>
<path d="M59.3416 37.5V5.72507H66.0378V31.9554H79.6648V37.5H59.3416ZM84.0365 37.5V13.6581H90.6474V37.5H84.0365ZM87.342 10.6086C86.361 10.6086 85.5151 10.2816 84.8042 9.62762C84.1076 8.97364 83.7593 8.1846 83.7593 7.2605C83.7593 6.33639 84.1076 5.55446 84.8042 4.9147C85.5151 4.26072 86.361 3.93373 87.342 3.93373C88.3229 3.93373 89.1617 4.26072 89.8584 4.9147C90.5692 5.55446 90.9247 6.33639 90.9247 7.2605C90.9247 8.1846 90.5692 8.97364 89.8584 9.62762C89.1617 10.2816 88.3229 10.6086 87.342 10.6086ZM106.62 46.9259C103.407 46.9259 100.884 46.2861 99.0497 45.0066C97.2299 43.7413 96.1281 42.1632 95.7442 40.2723L101.843 39.4619C102.113 40.187 102.632 40.8197 103.4 41.3599C104.182 41.9002 105.305 42.1703 106.769 42.1703C108.205 42.1703 109.393 41.822 110.331 41.1253C111.269 40.4429 111.738 39.2842 111.738 37.6493V33.2776H111.44C111.013 34.2727 110.246 35.1684 109.137 35.9646C108.042 36.7607 106.542 37.1588 104.637 37.1588C102.86 37.1588 101.239 36.7465 99.7747 35.9219C98.3104 35.0831 97.1446 33.8036 96.2773 32.0833C95.4101 30.3631 94.9765 28.1879 94.9765 25.5577C94.9765 22.8423 95.4172 20.5818 96.2987 18.7762C97.1943 16.9707 98.3743 15.6201 99.8387 14.7244C101.303 13.8145 102.91 13.3596 104.658 13.3596C105.98 13.3596 107.096 13.5871 108.006 14.042C108.916 14.4827 109.648 15.0372 110.203 15.7054C110.772 16.3736 111.205 17.0347 111.504 17.6886H111.76V13.6581H118.243V37.7559C118.243 39.7747 117.745 41.4665 116.75 42.8314C115.755 44.1962 114.383 45.2198 112.634 45.9022C110.899 46.5846 108.895 46.9259 106.62 46.9259ZM101.737 25.5151C101.737 27.5623 102.163 29.1902 103.016 30.3986C103.883 31.5928 105.127 32.19 106.748 32.19C108.34 32.19 109.57 31.6 110.437 30.4199C111.319 29.2399 111.76 27.605 111.76 25.5151C111.76 23.4252 111.326 21.7547 110.459 20.5036C109.592 19.2383 108.355 18.6056 106.748 18.6056C105.113 18.6056 103.869 19.2525 103.016 20.5463C102.163 21.8258 101.737 23.4821 101.737 25.5151ZM130.142 23.7238V37.5H123.531V5.72507H129.929V17.9019H130.227C130.768 16.4944 131.635 15.3855 132.829 14.5751C134.038 13.7648 135.545 13.3596 137.35 13.3596C139.824 13.3596 141.814 14.1557 143.321 15.748C144.828 17.3403 145.582 19.5369 145.582 22.3376V37.5H138.992V23.5105C138.992 22.0319 138.623 20.8875 137.883 20.0771C137.144 19.2525 136.085 18.8402 134.706 18.8402C133.369 18.8402 132.275 19.2738 131.422 20.1411C130.569 20.9941 130.142 22.1883 130.142 23.7238ZM163.538 13.6581V18.6483H159.017V30.164C159.017 31.7137 159.77 32.4885 161.277 32.4885C161.533 32.4885 161.81 32.4672 162.109 32.4245C162.422 32.3819 162.692 32.3321 162.919 32.2753L163.964 37.2228C162.557 37.6351 161.192 37.8412 159.87 37.8412C157.51 37.8412 155.676 37.2441 154.368 36.0499C153.074 34.8556 152.427 33.1851 152.427 31.0384V18.6483H149.186V13.6581H152.427V7.98556H159.017V13.6581H163.538Z" fill="white"/>
</svg>
