<svg width="29" height="29" viewBox="0 0 29 29" fill="none" xmlns="http://www.w3.org/2000/svg">
<path d="M4.38767 14.735C5.59487 13.8277 7.09562 13.29 8.72192 13.29C12.7105 13.29 15.9438 16.524 15.9438 20.5133C15.9438 22.1394 15.4066 23.64 14.5 24.8472M4.38767 14.735C2.63417 16.0528 1.5 18.1506 1.5 20.5133C1.5 21.2595 1.61313 21.9792 1.82317 22.6564C2.21718 23.9265 1.93274 25.3424 1.68114 26.6773C1.58613 27.1814 2.04109 27.5917 2.53587 27.4562C3.7603 27.121 4.9793 26.835 6.22972 27.2948C7.00653 27.5805 7.84602 27.7365 8.72192 27.7365C11.0847 27.7365 13.1824 26.6016 14.5 24.8472M4.38767 14.735C4.38767 7.96636 8.54135 1.73291 15.9438 1.73291C22.3261 1.73291 27.5 6.90722 27.5 13.29C27.5 14.6586 27.2621 15.9716 26.8255 17.19C26.1388 19.1061 26.8788 21.6714 27.3128 23.7892C27.4158 24.2918 26.9597 24.7021 26.47 24.5493C24.5744 23.9576 22.3494 23.1252 20.5684 23.876C18.6408 24.6885 16.6155 24.8472 14.5 24.8472" stroke="white" stroke-width="2" stroke-linecap="round" stroke-linejoin="round"/>
</svg>
