<svg width="29" height="29" viewBox="0 0 29 29" fill="none" xmlns="http://www.w3.org/2000/svg">
<path d="M17.9207 14.4031C17.9207 12.5137 16.3891 10.9821 14.4997 10.9821C12.6103 10.9821 11.0786 12.5137 11.0786 14.4031C11.0786 16.2925 12.6103 17.8242 14.4997 17.8242C16.3891 17.8242 17.9207 16.2925 17.9207 14.4031Z" stroke="white" stroke-width="2" stroke-linecap="round" stroke-linejoin="round"/>
<path d="M11.3701 2.96349C12.1656 2.28561 12.5633 1.94667 12.9791 1.74792C13.9409 1.28821 15.0591 1.28821 16.0209 1.74792C16.4367 1.94667 16.8344 2.28561 17.6299 2.96349C18.4488 3.66135 19.281 4.01355 20.3759 4.10093C21.4177 4.18407 21.9386 4.22563 22.3732 4.37913C23.3783 4.73417 24.169 5.5248 24.524 6.52996C24.6775 6.96454 24.7191 7.48544 24.8022 8.52724C24.8896 9.62216 25.2418 10.4544 25.9396 11.2733C26.6175 12.0687 26.9565 12.4664 27.1552 12.8823C27.6149 13.8441 27.6149 14.9622 27.1552 15.924C26.9565 16.3398 26.6175 16.7376 25.9396 17.533C25.2272 18.369 24.8878 19.2065 24.8022 20.279C24.7191 21.3208 24.6775 21.8417 24.524 22.2763C24.169 23.2815 23.3783 24.0721 22.3732 24.4271C21.9386 24.5806 21.4177 24.6222 20.3759 24.7053C19.281 24.7927 18.4488 25.1449 17.6299 25.8428C16.8344 26.5207 16.4367 26.8596 16.0209 27.0584C15.0591 27.5181 13.9409 27.5181 12.9791 27.0584C12.5633 26.8596 12.1656 26.5207 11.3701 25.8428C10.5341 25.1303 9.69662 24.7909 8.6241 24.7053C7.5823 24.6222 7.0614 24.5806 6.62682 24.4271C5.62166 24.0721 4.83103 23.2815 4.476 22.2763C4.3225 21.8417 4.28093 21.3208 4.19779 20.279C4.11042 19.1841 3.75822 18.3519 3.06035 17.533C2.38248 16.7376 2.04354 16.3398 1.84478 15.924C1.38507 14.9622 1.38507 13.8441 1.84478 12.8823C2.04354 12.4664 2.38248 12.0687 3.06035 11.2733C3.7728 10.4373 4.11221 9.59976 4.19779 8.52724C4.28093 7.48544 4.3225 6.96454 4.476 6.52996C4.83103 5.5248 5.62166 4.73417 6.62682 4.37913C7.0614 4.22563 7.5823 4.18407 8.6241 4.10093C9.71903 4.01355 10.5512 3.66135 11.3701 2.96349Z" stroke="white" stroke-width="2" stroke-linecap="round" stroke-linejoin="round"/>
</svg>
